<?xml version="1.0" encoding="UTF-8"?>
<svg version="1.1" xmlns="http://www.w3.org/2000/svg" width="128" height="128">
<path d="M0 0 C42.24 0 84.48 0 128 0 C128 42.24 128 84.48 128 128 C85.76 128 43.52 128 0 128 C0 85.76 0 43.52 0 0 Z " fill="#E4DF33" transform="translate(0,0)"/>
<path d="M0 0 C42.24 0 84.48 0 128 0 C128 21.12 128 42.24 128 64 C127.01 64 126.02 64 125 64 C125 59.71 125 55.42 125 51 C113.86892821 48.06014412 102.73396757 45.62920516 91.375 43.75 C90.19241104 43.55239578 90.19241104 43.55239578 88.9859314 43.35079956 C64.01081181 38.56427538 64.01081181 38.56427538 40 42 C38.47698852 42.2528105 36.94666056 42.46237223 35.4140625 42.6484375 C34.48207031 42.76703125 33.55007812 42.885625 32.58984375 43.0078125 C30.65270438 43.24772172 28.71521465 43.4848232 26.77734375 43.71875 C19.56718281 44.64338183 13.16850929 46.20787268 6 48 C6 58.23 6 68.46 6 79 C4.68 79 3.36 79 2 79 C2 78.01 2 77.02 2 76 C1.34 76 0.68 76 0 76 C0 50.92 0 25.84 0 0 Z " fill="#E5E033" transform="translate(0,0)"/>
<path d="M0 0 C2.41488592 0.41610569 4.8324651 0.8119112 7.2512207 1.20483398 C29.94304163 4.95524866 29.94304163 4.95524866 33.58911133 8.60131836 C33.84790039 10.67675781 33.84790039 10.67675781 33.85473633 13.21459961 C33.85860352 14.59228516 33.85860352 14.59228516 33.86254883 15.99780273 C33.85481445 16.96008789 33.84708008 17.92237305 33.83911133 18.91381836 C33.85071289 20.33984375 33.85071289 20.33984375 33.86254883 21.79467773 C33.83611608 31.25099391 33.83611608 31.25099391 31.58911133 34.60131836 C29.20629883 35.74584961 29.20629883 35.74584961 26.46411133 36.41381836 C25.09899414 36.76379883 25.09899414 36.76379883 23.70629883 37.12084961 C23.00762695 37.2794043 22.30895508 37.43795898 21.58911133 37.60131836 C21.91911133 37.93131836 22.24911133 38.26131836 22.58911133 38.60131836 C23.57911133 38.27131836 24.56911133 37.94131836 25.58911133 37.60131836 C27.59786575 37.87702975 29.6008982 38.20367573 31.58911133 38.60131836 C31.58911133 39.26131836 31.58911133 39.92131836 31.58911133 40.60131836 C29.93911133 40.27131836 28.28911133 39.94131836 26.58911133 39.60131836 C26.58911133 40.26131836 26.58911133 40.92131836 26.58911133 41.60131836 C28.23911133 41.93131836 29.88911133 42.26131836 31.58911133 42.60131836 C31.25911133 43.92131836 30.92911133 45.24131836 30.58911133 46.60131836 C29.47536133 46.56006836 28.36161133 46.51881836 27.21411133 46.47631836 C23.54545108 46.19009977 23.54545108 46.19009977 21.58911133 48.60131836 C19.58911133 48.26798503 17.58911133 47.93465169 15.58911133 47.60131836 C14.59911133 48.59131836 14.59911133 48.59131836 13.58911133 49.60131836 C10.96411133 49.22631836 10.96411133 49.22631836 8.58911133 48.60131836 C8.33911133 45.78881836 8.33911133 45.78881836 8.58911133 42.60131836 C10.58911133 40.72631836 10.58911133 40.72631836 12.58911133 39.60131836 C10.60911133 39.27131836 8.62911133 38.94131836 6.58911133 38.60131836 C6.58911133 42.56131836 6.58911133 46.52131836 6.58911133 50.60131836 C5.92911133 50.60131836 5.26911133 50.60131836 4.58911133 50.60131836 C4.25911133 48.95131836 3.92911133 47.30131836 3.58911133 45.60131836 C3.36223633 46.40569336 3.13536133 47.21006836 2.90161133 48.03881836 C2.46848633 48.88444336 2.03536133 49.73006836 1.58911133 50.60131836 C-1.03588867 51.41381836 -1.03588867 51.41381836 -3.41088867 51.60131836 C-3.74088867 50.61131836 -4.07088867 49.62131836 -4.41088867 48.60131836 C-4.41088867 49.92131836 -4.41088867 51.24131836 -4.41088867 52.60131836 C-10.55307981 54.76915053 -10.55307981 54.76915053 -14.28588867 54.03881836 C-16.41088867 52.60131836 -16.41088867 52.60131836 -17.28588867 50.22631836 C-17.40539432 47.71669969 -17.07265054 45.99384204 -16.41088867 43.60131836 C-17.36342529 43.60917358 -17.36342529 43.60917358 -18.33520508 43.6171875 C-21.23542272 43.63808092 -24.13562447 43.6510177 -27.03588867 43.66381836 C-28.53442383 43.67638672 -28.53442383 43.67638672 -30.06323242 43.68920898 C-34.96109143 43.70542706 -39.59745066 43.64450373 -44.41088867 42.60131836 C-44.41088867 41.94131836 -44.41088867 41.28131836 -44.41088867 40.60131836 C-45.99063477 40.41956055 -45.99063477 40.41956055 -47.60229492 40.23413086 C-51.41908448 39.79248205 -55.23459368 39.34065915 -59.04956055 38.88354492 C-60.57407754 38.70133425 -62.09880466 38.52086923 -63.6237793 38.3425293 C-65.65798887 38.10304479 -67.69072979 37.85358516 -69.72338867 37.60131836 C-70.91577148 37.45694336 -72.1081543 37.31256836 -73.33666992 37.16381836 C-78.10226879 36.29184093 -78.10226879 36.29184093 -80.41088867 34.60131836 C-83.33300507 29.94448525 -82.7414744 24.28628893 -82.72338867 18.97631836 C-82.73950195 18.02241211 -82.75561523 17.06850586 -82.7722168 16.08569336 C-82.77286133 15.17045898 -82.77350586 14.25522461 -82.77416992 13.31225586 C-82.77715088 12.48000488 -82.78013184 11.64775391 -82.78320312 10.7902832 C-82.31333344 8.02775758 -81.68394178 7.22040367 -79.41088867 5.60131836 C-77.0168457 4.84936523 -77.0168457 4.84936523 -74.16870117 4.32006836 C-72.58484619 4.01879028 -72.58484619 4.01879028 -70.96899414 3.71142578 C-69.83606934 3.51009033 -68.70314453 3.30875488 -67.53588867 3.10131836 C-66.3707373 2.88773682 -65.20558594 2.67415527 -64.00512695 2.45410156 C-60.47674215 1.81741321 -56.94523466 1.20396966 -53.41088867 0.60131836 C-51.91525391 0.34487549 -51.91525391 0.34487549 -50.3894043 0.08325195 C-47.69100737 -0.36882812 -44.99028202 -0.79662087 -42.28588867 -1.21118164 C-41.52034668 -1.33493164 -40.75480469 -1.45868164 -39.96606445 -1.58618164 C-26.40824196 -3.53241751 -13.39079365 -2.31092781 0 0 Z " fill="#194078" transform="translate(88.410888671875,42.398681640625)"/>
<path d="M0 0 C2.10409639 -0.02701408 4.20829178 -0.04640223 6.3125 -0.0625 C7.48425781 -0.07410156 8.65601563 -0.08570313 9.86328125 -0.09765625 C13 0 13 0 16 1 C16 1.99 16 2.98 16 4 C16.99 3.67 17.98 3.34 19 3 C23.27000837 2.78649958 26.78750998 2.79691732 30.875 4.0625 C33.87060172 5.35026777 33.87060172 5.35026777 36 4 C38.71760108 3.92818179 41.40859388 3.90700494 44.125 3.9375 C44.87910156 3.94201172 45.63320312 3.94652344 46.41015625 3.95117188 C48.27347127 3.96296501 50.13674555 3.98090058 52 4 C51.98839844 4.71027344 51.97679688 5.42054687 51.96484375 6.15234375 C51.95582031 7.07144531 51.94679688 7.99054687 51.9375 8.9375 C51.92589844 9.85402344 51.91429688 10.77054688 51.90234375 11.71484375 C51.74050951 13.96593327 51.74050951 13.96593327 53 15 C53.04092937 17.33297433 53.04241723 19.66705225 53 22 C53.66 22 54.32 22 55 22 C55 16.39 55 10.78 55 5 C54.34 5 53.68 5 53 5 C53 4.34 53 3.68 53 3 C52.01 2.67 51.02 2.34 50 2 C55.75 2.75 55.75 2.75 58 5 C58.25878906 7.07543945 58.25878906 7.07543945 58.265625 9.61328125 C58.26949219 10.9909668 58.26949219 10.9909668 58.2734375 12.39648438 C58.26570313 13.35876953 58.25796875 14.32105469 58.25 15.3125 C58.26160156 16.73852539 58.26160156 16.73852539 58.2734375 18.19335938 C58.24700475 27.64967555 58.24700475 27.64967555 56 31 C53.6171875 32.14453125 53.6171875 32.14453125 50.875 32.8125 C49.50988281 33.16248047 49.50988281 33.16248047 48.1171875 33.51953125 C47.41851562 33.67808594 46.71984375 33.83664063 46 34 C46.33 34.33 46.66 34.66 47 35 C47.99 34.67 48.98 34.34 50 34 C52.00875442 34.27571139 54.01178687 34.60235737 56 35 C56 35.66 56 36.32 56 37 C54.35 36.67 52.7 36.34 51 36 C51 36.66 51 37.32 51 38 C52.65 38.33 54.3 38.66 56 39 C55.67 40.32 55.34 41.64 55 43 C53.88625 42.95875 52.7725 42.9175 51.625 42.875 C47.95633975 42.58878141 47.95633975 42.58878141 46 45 C44 44.66666667 42 44.33333333 40 44 C39.34 44.66 38.68 45.32 38 46 C35.375 45.625 35.375 45.625 33 45 C32.75 42.1875 32.75 42.1875 33 39 C35 37.125 35 37.125 37 36 C34.03 35.505 34.03 35.505 31 35 C31 38.96 31 42.92 31 47 C30.34 47 29.68 47 29 47 C28.67 45.35 28.34 43.7 28 42 C27.773125 42.804375 27.54625 43.60875 27.3125 44.4375 C26.879375 45.283125 26.44625 46.12875 26 47 C23.375 47.8125 23.375 47.8125 21 48 C20.67 47.01 20.34 46.02 20 45 C20 46.32 20 47.64 20 49 C13.85780886 51.16783217 13.85780886 51.16783217 10.125 50.4375 C8 49 8 49 7.125 46.625 C7.00549435 44.11538133 7.33823813 42.39252368 8 40 C7.04746338 40.00785522 7.04746338 40.00785522 6.07568359 40.01586914 C3.17546595 40.03676256 0.2752642 40.04969934 -2.625 40.0625 C-4.12353516 40.07506836 -4.12353516 40.07506836 -5.65234375 40.08789062 C-10.55020275 40.1041087 -15.18656199 40.04318537 -20 39 C-20 38.34 -20 37.68 -20 37 C-19.319375 37.0721875 -18.63875 37.144375 -17.9375 37.21875 C-1.13022479 39.43500231 -1.13022479 39.43500231 14.8125 36 C17.0613474 34.97195547 18.74622854 34.71116566 21.1875 34.4375 C24.78190939 34.42538466 24.78190939 34.42538466 26 33 C21.04353238 32.29810371 16.91695678 31.86531767 12 33 C8.14617226 33.20604624 4.70191359 33.2339712 1 32 C-0.76990224 26.69029329 -0.43055567 20.99917984 -0.625 15.4375 C-0.70234375 13.5512793 -0.70234375 13.5512793 -0.78125 11.62695312 C-0.82507813 10.42876953 -0.86890625 9.23058594 -0.9140625 7.99609375 C-0.9548291 6.89450928 -0.9955957 5.7929248 -1.03759766 4.65795898 C-1 2 -1 2 0 0 Z " fill="#373D4A" transform="translate(64,46)"/>
<path d="M0 0 C1.60332791 -0.08121924 3.20784026 -0.13929134 4.8125 -0.1875 C6.15248047 -0.23970703 6.15248047 -0.23970703 7.51953125 -0.29296875 C10.41647515 0.04918998 11.22555028 0.75393573 13 3 C13.66 2.34 14.32 1.68 15 1 C18.5919305 -0.33034463 22.21470013 -0.07279423 26 0 C26 2.31 26 4.62 26 7 C23.36 7 20.72 7 18 7 C18 8.65 18 10.3 18 12 C20.64 12 23.28 12 26 12 C26 14.31 26 16.62 26 19 C23.36 19 20.72 19 18 19 C18 22.96 18 26.92 18 31 C15.69 31 13.38 31 11 31 C10.34 27.7 9.68 24.4 9 21 C7.02 21 5.04 21 3 21 C2.67 23.31 2.34 25.62 2 28 C-0.31 28 -2.62 28 -5 28 C-5.1743959 24.41728224 -5.28087658 20.83565398 -5.375 17.25 C-5.42527344 16.23421875 -5.47554687 15.2184375 -5.52734375 14.171875 C-5.67307052 6.78838512 -5.67307052 6.78838512 -3.63769531 4.40429688 C-1.9765625 3.296875 -1.9765625 3.296875 1 2 C0.67 1.34 0.34 0.68 0 0 Z " fill="#154881" transform="translate(34,47)"/>
<path d="M0 0 C-3.39171664 2.26114443 -6.0037341 2.71333041 -9.94140625 3.4375 C-12.20323279 3.87275231 -12.20323279 3.87275231 -14 6 C-14.66 5.67 -15.32 5.34 -16 5 C-15.67 12.59 -15.34 20.18 -15 28 C-13.68 28.33 -12.36 28.66 -11 29 C-11 29.66 -11 30.32 -11 31 C-4.7775526 31.99825359 1.38929049 32.33241293 7.6796875 32.60546875 C10.98874462 32.76594142 13.84041382 32.94680461 17 34 C19.22574335 34.22451458 21.45581519 34.40782878 23.6875 34.5625 C24.86699219 34.64628906 26.04648437 34.73007813 27.26171875 34.81640625 C28.61716797 34.90728516 28.61716797 34.90728516 30 35 C30 31.04 30 27.08 30 23 C32.97 22.67 35.94 22.34 39 22 C39 16.72 39 11.44 39 6 C39.33 6 39.66 6 40 6 C40.33 14.58 40.66 23.16 41 32 C44.6196875 32.0309375 44.6196875 32.0309375 48.3125 32.0625 C49.06829346 32.071604 49.82408691 32.08070801 50.6027832 32.09008789 C53.6839493 32.10287966 56.05605196 31.98131601 59 31 C61.26171875 31.12109375 61.26171875 31.12109375 63.6875 31.4375 C64.49574219 31.53933594 65.30398437 31.64117187 66.13671875 31.74609375 C66.75160156 31.82988281 67.36648437 31.91367188 68 32 C64.7260295 35.85233752 61.86754429 35.60102096 57 36 C57 36.66 57 37.32 57 38 C41.84229539 40.16538637 27.26742333 38.6929587 12.21386719 36.54638672 C9.21463676 36.11997224 6.21317876 35.71320979 3.2109375 35.30859375 C1.29150871 35.04280485 -0.62776857 34.775919 -2.546875 34.5078125 C-3.88428741 34.32643234 -3.88428741 34.32643234 -5.24871826 34.14138794 C-6.4921701 33.96142776 -6.4921701 33.96142776 -7.76074219 33.77783203 C-8.48525574 33.6756839 -9.20976929 33.57353577 -9.95623779 33.46829224 C-13.19509351 32.7261653 -15.43786541 31.89584623 -17.23046875 29.0390625 C-18.38300521 24.48742106 -18.32842909 20.05178037 -18.3125 15.375 C-18.32861328 14.42109375 -18.34472656 13.4671875 -18.36132812 12.484375 C-18.36197266 11.56914063 -18.36261719 10.65390625 -18.36328125 9.7109375 C-18.36626221 8.87868652 -18.36924316 8.04643555 -18.37231445 7.18896484 C-17.91548245 4.50309225 -17.13189744 3.64523029 -15 2 C-12.6953125 1.26953125 -12.6953125 1.26953125 -10.125 0.8125 C-9.28195312 0.65394531 -8.43890625 0.49539062 -7.5703125 0.33203125 C-5.01498548 0.00193581 -2.57335099 -0.05995262 0 0 Z " fill="#29335A" transform="translate(24,46)"/>
<path d="M0 0 C1.66711885 0.281778 3.33443654 0.56238223 5.00195312 0.84179688 C17.00854136 2.86654565 17.00854136 2.86654565 22.8125 4.0625 C22.8125 4.7225 22.8125 5.3825 22.8125 6.0625 C23.8025 6.0625 24.7925 6.0625 25.8125 6.0625 C25.8125 6.7225 25.8125 7.3825 25.8125 8.0625 C26.4725 8.0625 27.1325 8.0625 27.8125 8.0625 C29.17077701 10.77905403 28.9448445 12.97039406 28.9375 16 C28.94136719 17.59134766 28.94136719 17.59134766 28.9453125 19.21484375 C28.8125 22.0625 28.8125 22.0625 27.8125 25.0625 C27.1525 25.0625 26.4925 25.0625 25.8125 25.0625 C25.5959375 23.45375 25.5959375 23.45375 25.375 21.8125 C24.94920247 18.3203573 24.94920247 18.3203573 24.1875 16.0625 C23.61098298 12.98774253 24.33682229 10.1295563 24.8125 7.0625 C22.20797729 7.20336602 19.60399803 7.34998464 17 7.5 C16.26201172 7.53931641 15.52402344 7.57863281 14.76367188 7.61914062 C11.58178658 7.80631035 8.85087622 8.04970793 5.8125 9.0625 C4.9875 8.753125 4.1625 8.44375 3.3125 8.125 C-1.54059556 6.65173885 -6.15373908 6.90127634 -11.1875 7.0625 C-11.1875 6.0725 -11.1875 5.0825 -11.1875 4.0625 C-13.8275 3.7325 -16.4675 3.4025 -19.1875 3.0625 C-19.1875 2.7325 -19.1875 2.4025 -19.1875 2.0625 C-16.5475 2.0625 -13.9075 2.0625 -11.1875 2.0625 C-11.1875 1.4025 -11.1875 0.7425 -11.1875 0.0625 C-15.29160755 0.00453868 -19.39561016 -0.03108313 -23.5 -0.0625 C-25.25086914 -0.08763672 -25.25086914 -0.08763672 -27.03710938 -0.11328125 C-28.15537109 -0.11972656 -29.27363281 -0.12617187 -30.42578125 -0.1328125 C-31.45743408 -0.14328613 -32.48908691 -0.15375977 -33.55200195 -0.16455078 C-36.41937592 -0.13047515 -36.41937592 -0.13047515 -39.1875 2.0625 C-48.14806356 4.07057555 -58.05731556 3.15201161 -67.1875 3.0625 C-67.1875 2.7325 -67.1875 2.4025 -67.1875 2.0625 C-62.92582578 1.33361103 -58.66161497 0.62260757 -54.39453125 -0.07373047 C-52.95105797 -0.31164808 -51.50830401 -0.55398274 -50.06640625 -0.80126953 C-32.81401129 -3.75297118 -17.1539101 -3.00702584 0 0 Z " fill="#2A3767" transform="translate(91.1875,42.9375)"/>
<path d="M0 0 C0 2.31 0 4.62 0 7 C-2.64 7 -5.28 7 -8 7 C-8 8.32 -8 9.64 -8 11 C-5.36 11 -2.72 11 0 11 C0 13.31 0 15.62 0 18 C-2.64 18 -5.28 18 -8 18 C-8 19.32 -8 20.64 -8 22 C-5.36 22 -2.72 22 0 22 C0 24.31 0 26.62 0 29 C-4.62 29.33 -9.24 29.66 -14 30 C-14 20.1 -14 10.2 -14 0 C-9.35601989 -1.54799337 -4.67482292 -1.49594333 0 0 Z " fill="#AAAC3C" transform="translate(79,48)"/>
<path d="M0 0 C0.825 0.33 1.65 0.66 2.5 1 C2.5 2.65 2.5 4.3 2.5 6 C-0.8 6 -4.1 6 -7.5 6 C-7.5 7.32 -7.5 8.64 -7.5 10 C-4.53 10 -1.56 10 1.5 10 C2.72691067 12.45382134 2.70175931 14.19984103 2.75 16.9375 C2.77578125 17.81277344 2.8015625 18.68804687 2.828125 19.58984375 C2.5 22 2.5 22 1.125 23.7734375 C-2.7973733 26.73407504 -7.80671234 26.09202525 -12.5 26 C-12.5 23.69 -12.5 21.38 -12.5 19 C-9.53 19 -6.56 19 -3.5 19 C-3.5 18.01 -3.5 17.02 -3.5 16 C-4.593125 16.04125 -5.68625 16.0825 -6.8125 16.125 C-10.5 16 -10.5 16 -13.5 14 C-13.79296875 10.7421875 -13.79296875 10.7421875 -13.6875 6.875 C-13.66042969 5.59367187 -13.63335937 4.31234375 -13.60546875 2.9921875 C-13.57066406 2.00476562 -13.53585938 1.01734375 -13.5 0 C-9.2617491 -2.11912545 -4.38187654 -1.25196473 0 0 Z " fill="#8F8E3D" transform="translate(94.5,50)"/>
<path d="M0 0 C0.495 5.94 0.495 5.94 1 12 C0.34 12 -0.32 12 -1 12 C-1.495 9.525 -1.495 9.525 -2 7 C-2.226875 7.804375 -2.45375 8.60875 -2.6875 9.4375 C-3.120625 10.283125 -3.55375 11.12875 -4 12 C-6.625 12.8125 -6.625 12.8125 -9 13 C-9.495 11.515 -9.495 11.515 -10 10 C-10 11.32 -10 12.64 -10 14 C-16.14219114 16.16783217 -16.14219114 16.16783217 -19.875 15.4375 C-22 14 -22 14 -22.875 11.625 C-22.99450565 9.11538133 -22.66176187 7.39252368 -22 5 C-22.95253662 5.00785522 -22.95253662 5.00785522 -23.92431641 5.01586914 C-26.82453405 5.03676256 -29.7247358 5.04969934 -32.625 5.0625 C-34.12353516 5.07506836 -34.12353516 5.07506836 -35.65234375 5.08789062 C-40.55020275 5.1041087 -45.18656199 5.04318537 -50 4 C-50 3.34 -50 2.68 -50 2 C-49.319375 2.0721875 -48.63875 2.144375 -47.9375 2.21875 C-32.71567533 3.67615874 -18.82165132 2.87583567 -3.80908203 0.27539062 C-2 0 -2 0 0 0 Z " fill="#D5D75A" transform="translate(94,81)"/>
<path d="M0 0 C1.17949219 0.10183594 2.35898438 0.20367187 3.57421875 0.30859375 C4.47785156 0.39238281 5.38148437 0.47617187 6.3125 0.5625 C6.3125 1.8825 6.3125 3.2025 6.3125 4.5625 C3.3425 4.5625 0.3725 4.5625 -2.6875 4.5625 C-2.6875 5.5525 -2.6875 6.5425 -2.6875 7.5625 C-0.3775 7.5625 1.9325 7.5625 4.3125 7.5625 C5.57487731 10.08725462 5.41106404 11.87450466 5.375 14.6875 C5.36597656 15.59757812 5.35695313 16.50765625 5.34765625 17.4453125 C5.33605469 18.14398438 5.32445313 18.84265625 5.3125 19.5625 C0.23773206 20.82555335 -4.41546354 21.83286084 -9.6875 21.5625 C-9.730221 19.89638095 -9.72813832 18.22867115 -9.6875 16.5625 C-8.6875 15.5625 -8.6875 15.5625 -6.62109375 15.46484375 C-5.38552734 15.48224609 -5.38552734 15.48224609 -4.125 15.5 C-3.29871094 15.50902344 -2.47242187 15.51804687 -1.62109375 15.52734375 C-0.98300781 15.53894531 -0.34492187 15.55054687 0.3125 15.5625 C0.3125 14.5725 0.3125 13.5825 0.3125 12.5625 C-0.96625 12.583125 -2.245 12.60375 -3.5625 12.625 C-7.4375 12.6875 -7.4375 12.6875 -9.6875 11.5625 C-9.6875 7.9325 -9.6875 4.3025 -9.6875 0.5625 C-6.14075997 -0.61974668 -3.71227005 -0.33079634 0 0 Z " fill="#939638" transform="translate(108.6875,52.4375)"/>
<path d="M0 0 C0 1.65 0 3.3 0 5 C-2.64 5 -5.28 5 -8 5 C-8 6.32 -8 7.64 -8 9 C-5.36 9 -2.72 9 0 9 C0 10.65 0 12.3 0 14 C-2.64 14 -5.28 14 -8 14 C-8 14.99 -8 15.98 -8 17 C-5.36 17 -2.72 17 0 17 C0 19.31 0 21.62 0 24 C-1.958964 23.69147815 -3.91715713 23.3780582 -5.875 23.0625 C-6.96554688 22.88847656 -8.05609375 22.71445313 -9.1796875 22.53515625 C-12 22 -12 22 -14 21 C-14.05380578 18.20807795 -14.09357669 15.4171859 -14.125 12.625 C-14.14175781 11.8309375 -14.15851562 11.036875 -14.17578125 10.21875 C-14.19335473 8.14507985 -14.10335168 6.07116759 -14 4 C-11.72385081 1.72385081 -10.64803179 1.51338589 -7.5625 0.875 C-6.78003906 0.70742188 -5.99757813 0.53984375 -5.19140625 0.3671875 C-3 0 -3 0 0 0 Z " fill="#1067A9" transform="translate(27,51)"/>
<path d="M0 0 C3.37498158 -0.02922646 6.74993021 -0.04687468 10.125 -0.0625 C11.55199219 -0.07506836 11.55199219 -0.07506836 13.0078125 -0.08789062 C17.79018487 -0.10449608 22.29771569 -0.00537055 27 1 C27 1.66 27 2.32 27 3 C24.31306278 3.33851178 21.62559711 3.670936 18.9375 4 C17.80924805 4.14308594 17.80924805 4.14308594 16.65820312 4.2890625 C13.12395026 4.71745679 9.77727267 4.99816497 6.20703125 4.96875 C3.2121209 4.99793305 1.44933496 5.31492612 -1.25 6.5 C-3.86363558 7.62909057 -5.0613548 8 -8 8 C-8.495 7.01 -8.495 7.01 -9 6 C-11.35599235 5.53248212 -11.35599235 5.53248212 -14.0625 5.375 C-14.98160156 5.30023438 -15.90070312 5.22546875 -16.84765625 5.1484375 C-17.55792969 5.09945312 -18.26820312 5.05046875 -19 5 C-19.33 5.99 -19.66 6.98 -20 8 C-26.57849492 8.95494281 -32.41816638 8.8931507 -39 8 C-39 8.66 -39 9.32 -39 10 C-39.99 9.67 -40.98 9.34 -42 9 C-42.33 8.34 -42.66 7.68 -43 7 C-32.22969908 3.96326102 -21.4667737 3.32057109 -10.33691406 2.73486328 C-9.14678711 2.66638184 -7.95666016 2.59790039 -6.73046875 2.52734375 C-5.11241333 2.44601196 -5.11241333 2.44601196 -3.46166992 2.36303711 C-2.64931885 2.24323486 -1.83696777 2.12343262 -1 2 C-0.67 1.34 -0.34 0.68 0 0 Z " fill="#273A6D" transform="translate(53,42)"/>
<path d="M0 0 C-3.39171664 2.26114443 -6.0037341 2.71333041 -9.94140625 3.4375 C-12.20323279 3.87275231 -12.20323279 3.87275231 -14 6 C-14.66 5.67 -15.32 5.34 -16 5 C-15.67 12.59 -15.34 20.18 -15 28 C-13.68 28.33 -12.36 28.66 -11 29 C-11 29.66 -11 30.32 -11 31 C-6.54614751 31.71590251 -2.20467094 32.12491667 2.30126953 32.29101562 C8.59267199 32.52468464 14.49567892 32.95074829 20.625 34.5 C30.86356025 36.98685409 41.51364483 36.76607958 52 37 C41.98153878 43.24676865 23.19817638 38.11270169 12.21386719 36.54638672 C9.21463676 36.11997224 6.21317876 35.71320979 3.2109375 35.30859375 C1.29150871 35.04280485 -0.62776857 34.775919 -2.546875 34.5078125 C-3.88428741 34.32643234 -3.88428741 34.32643234 -5.24871826 34.14138794 C-6.4921701 33.96142776 -6.4921701 33.96142776 -7.76074219 33.77783203 C-8.48525574 33.6756839 -9.20976929 33.57353577 -9.95623779 33.46829224 C-13.19509351 32.7261653 -15.43786541 31.89584623 -17.23046875 29.0390625 C-18.38300521 24.48742106 -18.32842909 20.05178037 -18.3125 15.375 C-18.32861328 14.42109375 -18.34472656 13.4671875 -18.36132812 12.484375 C-18.36197266 11.56914063 -18.36261719 10.65390625 -18.36328125 9.7109375 C-18.36626221 8.87868652 -18.36924316 8.04643555 -18.37231445 7.18896484 C-17.91548245 4.50309225 -17.13189744 3.64523029 -15 2 C-12.6953125 1.26953125 -12.6953125 1.26953125 -10.125 0.8125 C-9.28195312 0.65394531 -8.43890625 0.49539062 -7.5703125 0.33203125 C-5.01498548 0.00193581 -2.57335099 -0.05995262 0 0 Z " fill="#393A22" transform="translate(24,46)"/>
<path d="M0 0 C0.33 0.33 0.66 0.66 1 1 C1.99 0.67 2.98 0.34 4 0 C6.00875442 0.27571139 8.01178687 0.60235737 10 1 C10 1.66 10 2.32 10 3 C7.525 2.505 7.525 2.505 5 2 C5 2.66 5 3.32 5 4 C7.475 4.495 7.475 4.495 10 5 C9.67 6.32 9.34 7.64 9 9 C7.88625 8.95875 6.7725 8.9175 5.625 8.875 C1.95633975 8.58878141 1.95633975 8.58878141 0 11 C-2 10.66666667 -4 10.33333333 -6 10 C-6.66 10.66 -7.32 11.32 -8 12 C-10.625 11.625 -10.625 11.625 -13 11 C-13.25 8.1875 -13.25 8.1875 -13 5 C-11 3.125 -11 3.125 -9 2 C-9.66 1.34 -10.32 0.68 -11 0 C-3.4137931 -1.31299735 -3.4137931 -1.31299735 0 0 Z " fill="#B4B641" transform="translate(110,80)"/>
<path d="M0 0 C1.28132813 0.00902344 2.56265625 0.01804688 3.8828125 0.02734375 C5.36394531 0.04474609 5.36394531 0.04474609 6.875 0.0625 C6.875 0.3925 6.875 0.7225 6.875 1.0625 C5.98417725 1.19825439 5.09335449 1.33400879 4.17553711 1.47387695 C0.79229407 1.9911596 -2.59043989 2.51156951 -5.97290039 3.03393555 C-7.42225935 3.25714737 -8.87179764 3.47919862 -10.3215332 3.69995117 C-18.08873887 4.88349969 -25.8407028 6.13084585 -33.55859375 7.60546875 C-35.3828186 7.95194458 -35.3828186 7.95194458 -37.24389648 8.30541992 C-40.22985795 8.83123737 -40.22985795 8.83123737 -42.125 11.0625 C-42.41880047 13.2097866 -42.41880047 13.2097866 -42.35546875 15.67578125 C-42.35353516 16.59423828 -42.35160156 17.51269531 -42.34960938 18.45898438 C-42.33736328 19.42126953 -42.32511719 20.38355469 -42.3125 21.375 C-42.31185547 22.32568359 -42.31121094 23.27636719 -42.31054688 24.25585938 C-42.28271666 28.68086294 -42.0949385 32.72946302 -41.125 37.0625 C-30.46169775 38.75151303 -19.79771277 40.43380954 -9.125 42.0625 C-9.125 42.3925 -9.125 42.7225 -9.125 43.0625 C-18.03451798 43.32497352 -26.35725557 42.60836073 -35.125 41.0625 C-36.56146537 40.84714852 -37.99878102 40.63724167 -39.4375 40.4375 C-40.7678125 40.251875 -40.7678125 40.251875 -42.125 40.0625 C-44.72455411 34.12805975 -44.45644528 28.22924692 -44.4375 21.875 C-44.45361328 20.78251953 -44.46972656 19.69003906 -44.48632812 18.56445312 C-44.48697266 17.51837891 -44.48761719 16.47230469 -44.48828125 15.39453125 C-44.49126221 14.44296143 -44.49424316 13.4913916 -44.49731445 12.51098633 C-44.125 10.0625 -44.125 10.0625 -42.80419922 8.29785156 C-40.13812302 6.33647535 -37.10757968 5.74049247 -33.9375 5 C-33.23931152 4.83008545 -32.54112305 4.6601709 -31.82177734 4.48510742 C-25.35326143 2.97964165 -18.85584454 2.14710373 -12.2578125 1.45703125 C-0.64178979 -0.00583445 -0.64178979 -0.00583445 0 0 Z " fill="#D2D05C" transform="translate(49.125,39.9375)"/>
<path d="M0 0 C0 2.31 0 4.62 0 7 C-2.64 7 -5.28 7 -8 7 C-8 8.98 -8 10.96 -8 13 C-5.69 13 -3.38 13 -1 13 C-1 14.65 -1 16.3 -1 18 C-6.94 17.01 -6.94 17.01 -13 16 C-13.05386629 13.87527424 -13.09273071 11.75016348 -13.125 9.625 C-13.14820313 8.44164062 -13.17140625 7.25828125 -13.1953125 6.0390625 C-13 3 -13 3 -11 1 C-7.4080695 -0.33034463 -3.78529987 -0.07279423 0 0 Z " fill="#5FACDF" transform="translate(60,47)"/>
<path d="M0 0 C0.79921875 0.01804688 1.5984375 0.03609375 2.421875 0.0546875 C3.02515625 0.07789063 3.6284375 0.10109375 4.25 0.125 C4.25 1.775 4.25 3.425 4.25 5.125 C1.61 5.125 -1.03 5.125 -3.75 5.125 C-3.75 6.775 -3.75 8.425 -3.75 10.125 C-1.11 10.125 1.53 10.125 4.25 10.125 C4.25 11.775 4.25 13.425 4.25 15.125 C-2.185 15.62 -2.185 15.62 -8.75 16.125 C-8.75 11.505 -8.75 6.885 -8.75 2.125 C-5.00631258 0.25315629 -3.9099209 -0.11499767 0 0 Z " fill="#6AB9E5" transform="translate(38.75,49.875)"/>
<path d="M0 0 C5.21979128 -0.1799928 9.07262981 0.02905192 14 2 C14 3.65 14 5.3 14 7 C10.7 7 7.4 7 4 7 C4 8.32 4 9.64 4 11 C6.31 11 8.62 11 11 11 C11.33 12.32 11.66 13.64 12 15 C10.35 15 8.7 15 7 15 C7 14.34 7 13.68 7 13 C5.8553125 13.2784375 5.8553125 13.2784375 4.6875 13.5625 C2 14 2 14 -1 13 C-1.02696365 11.20841511 -1.04637917 9.41671527 -1.0625 7.625 C-1.07410156 6.62726562 -1.08570312 5.62953125 -1.09765625 4.6015625 C-1 2 -1 2 0 0 Z " fill="#A9B239" transform="translate(83,49)"/>
<path d="M0 0 C1.60875 0.28617188 1.60875 0.28617188 3.25 0.578125 C5.83581658 1.03987796 8.41870082 1.51374324 11 2 C11 2.33 11 2.66 11 3 C6.0617773 3.19752891 1.56597111 2.81212532 -3.3125 2 C-9.29599894 1.09144268 -15.13674205 0.77757395 -21.1875 0.75 C-22.01354736 0.74097656 -22.83959473 0.73195312 -23.69067383 0.72265625 C-27.62946189 0.74227865 -29.65308714 0.76872476 -33 3 C-41.96056356 5.00807555 -51.86981556 4.08951161 -61 4 C-61 3.67 -61 3.34 -61 3 C-56.73832578 2.27111103 -52.47411497 1.56010757 -48.20703125 0.86376953 C-46.76355797 0.62585192 -45.32080401 0.38351726 -43.87890625 0.13623047 C-28.92884845 -2.42156573 -15.02181909 -2.83575156 0 0 Z " fill="#393D33" transform="translate(85,42)"/>
<path d="M0 0 C0.99 0.495 0.99 0.495 2 1 C1.67 7.93 1.34 14.86 1 22 C10.29063694 23.83195658 19.59510041 24.96358668 29 26 C29 23.36 29 20.72 29 18 C30.65 18.33 32.3 18.66 34 19 C33.67 22.3 33.34 25.6 33 29 C29.64518257 28.88545996 26.29156293 28.75871679 22.9375 28.625 C21.99455078 28.5940625 21.05160156 28.563125 20.08007812 28.53125 C14.72433421 28.30731646 10.07901759 27.73292417 5 26 C5 25.34 5 24.68 5 24 C3.35 23.67 1.7 23.34 0 23 C0 15.41 0 7.82 0 0 Z " fill="#2B3664" transform="translate(8,51)"/>
<path d="M0 0 C2.10409639 -0.02701408 4.20829178 -0.04640223 6.3125 -0.0625 C7.48425781 -0.07410156 8.65601562 -0.08570313 9.86328125 -0.09765625 C13 0 13 0 16 1 C17.18681726 4.56045177 17.09689832 7.43808337 17.0625 11.1875 C17.05347656 12.45980469 17.04445313 13.73210938 17.03515625 15.04296875 C17.02355469 16.01878906 17.01195313 16.99460937 17 18 C17.99 18.33 18.98 18.66 20 19 C20 19.33 20 19.66 20 20 C18.35 20 16.7 20 15 20 C15 17.69 15 15.38 15 13 C12.36 13 9.72 13 7 13 C7 11.68 7 10.36 7 9 C9.64 9 12.28 9 15 9 C15 6.69 15 4.38 15 2 C10.38 2 5.76 2 1 2 C1 10.91 1 19.82 1 29 C0.67 29 0.34 29 0 29 C-0.19616609 24.5420032 -0.38047068 20.08359465 -0.5625 15.625 C-0.61857422 14.35398437 -0.67464844 13.08296875 -0.73242188 11.7734375 C-0.80493164 9.95585938 -0.80493164 9.95585938 -0.87890625 8.1015625 C-0.9260376 6.98088379 -0.97316895 5.86020508 -1.02172852 4.70556641 C-1 2 -1 2 0 0 Z " fill="#434331" transform="translate(64,46)"/>
<path d="M0 0 C0 0.33 0 0.66 0 1 C-1.051875 1.103125 -2.10375 1.20625 -3.1875 1.3125 C-8.10404415 2.14927435 -8.10404415 2.14927435 -12 5 C-12.78788485 8.54880871 -12.79096869 12.06306327 -12.8125 15.6875 C-12.83763672 16.67556641 -12.86277344 17.66363281 -12.88867188 18.68164062 C-12.94760552 21.12149336 -12.98383808 23.55954995 -13 26 C-13.66 26 -14.32 26 -15 26 C-15 24.02 -15 22.04 -15 20 C-17.64 20 -20.28 20 -23 20 C-23 19.01 -23 18.02 -23 17 C-20.36 17 -17.72 17 -15 17 C-15 15.35 -15 13.7 -15 12 C-17.64 12 -20.28 12 -23 12 C-23 10.68 -23 9.36 -23 8 C-20.36 8 -17.72 8 -15 8 C-15 6.02 -15 4.04 -15 2 C-9.75614911 0.2520497 -5.52677733 -0.19392201 0 0 Z " fill="#073F79" transform="translate(42,48)"/>
<path d="M0 0 C3 0.125 3 0.125 4 1.125 C4.23287008 2.80683948 4.41264166 4.4962416 4.5625 6.1875 C4.68818359 7.56615234 4.68818359 7.56615234 4.81640625 8.97265625 C4.87699219 9.68292969 4.93757813 10.39320312 5 11.125 C7.31 11.125 9.62 11.125 12 11.125 C12 10.465 12 9.805 12 9.125 C12.66 9.125 13.32 9.125 14 9.125 C14 10.775 14 12.425 14 14.125 C9.71 14.125 5.42 14.125 1 14.125 C-0.35015859 10.07452424 0.37915002 7.3329832 1 3.125 C0.01 3.125 -0.98 3.125 -2 3.125 C-2.33 5.435 -2.66 7.745 -3 10.125 C-5.75084547 10.01088196 -8.50011947 9.88414051 -11.25 9.75 C-12.02730469 9.7190625 -12.80460937 9.688125 -13.60546875 9.65625 C-20.72431144 9.29118114 -20.72431144 9.29118114 -24 7.125 C-10.3667426 6.94048975 -10.3667426 6.94048975 -4 8.125 C-4.0309375 6.4234375 -4.0309375 6.4234375 -4.0625 4.6875 C-3.98317484 0.16596562 -3.98317484 0.16596562 0 0 Z " fill="#1C376D" transform="translate(40,66.875)"/>
<path d="M0 0 C0.33 0 0.66 0 1 0 C1 3.96 1 7.92 1 12 C2.0725 11.979375 3.145 11.95875 4.25 11.9375 C7.14790424 11.9857984 9.28612141 12.13155885 12 13 C12.33 11.68 12.66 10.36 13 9 C10.69 9 8.38 9 6 9 C6 8.67 6 8.34 6 8 C8.64 8 11.28 8 14 8 C14 10.31 14 12.62 14 15 C11.36 15 8.72 15 6 15 C6 18.63 6 22.26 6 26 C4.02 25.67 2.04 25.34 0 25 C0 16.75 0 8.5 0 0 Z " fill="#166DAB" transform="translate(46,51)"/>
<path d="M0 0 C0 0.66 0 1.32 0 2 C-5.46966033 3.74735458 -10.73214172 4.56411869 -16.4375 5.125 C-17.67790039 5.25455078 -17.67790039 5.25455078 -18.94335938 5.38671875 C-20.96166778 5.59671616 -22.98076133 5.79914451 -25 6 C-25 9.63 -25 13.26 -25 17 C-25.33 17 -25.66 17 -26 17 C-26 13.37 -26 9.74 -26 6 C-27.7015625 6.495 -27.7015625 6.495 -29.4375 7 C-33.99795849 8.15847067 -38.32161006 8.19493291 -43 8 C-40.21374112 6.45346979 -37.98129011 5.71692427 -34.8125 5.4375 C-31.21809061 5.42538466 -31.21809061 5.42538466 -30 4 C-32.31 3.67 -34.62 3.34 -37 3 C-37 2.67 -37 2.34 -37 2 C-32.05 2 -27.1 2 -22 2 C-22 2.33 -22 2.66 -22 3 C-17.545 2.505 -17.545 2.505 -13 2 C-13 1.67 -13 1.34 -13 1 C-11.39602723 0.83147753 -9.7918131 0.66525114 -8.1875 0.5 C-6.84751953 0.36078125 -6.84751953 0.36078125 -5.48046875 0.21875 C-3 0 -3 0 0 0 Z " fill="#2E3221" transform="translate(120,75)"/>
<path d="M0 0 C7.82613575 0.44501556 15.4192901 1.52926785 23.12109375 2.91552734 C29.41544936 4.00667303 35.57894298 4.39181279 41.9609375 4.49609375 C45.5690559 5.09435503 46.7396565 6.19962369 49 9 C48.67 9.66 48.34 10.32 48 11 C47.21625 10.76925781 46.4325 10.53851563 45.625 10.30078125 C30.67729949 6.22559997 15.30481431 4.2556222 0 2 C0 1.34 0 0.68 0 0 Z " fill="#CBCF5E" transform="translate(72,39)"/>
<path d="M0 0 C3.79247491 0.28169565 7.58375745 0.5772119 11.375 0.875 C12.43589844 0.95363281 13.49679688 1.03226563 14.58984375 1.11328125 C21.18487118 1.63926503 27.54849825 2.52759061 34 4 C34 4.33 34 4.66 34 5 C32.783125 5.020625 31.56625 5.04125 30.3125 5.0625 C29.28576172 5.07990234 29.28576172 5.07990234 28.23828125 5.09765625 C26 5 26 5 23.625 4.5 C20.59324016 3.92252194 17.77139464 3.90361105 14.6875 3.9375 C13.61886719 3.94652344 12.55023438 3.95554688 11.44921875 3.96484375 C10.64097656 3.97644531 9.83273438 3.98804688 9 4 C11.97 4.33 14.94 4.66 18 5 C18 5.66 18 6.32 18 7 C12.06 7 6.12 7 0 7 C0 6.01 0 5.02 0 4 C-2.64 3.67 -5.28 3.34 -8 3 C-8 2.67 -8 2.34 -8 2 C-5.36 2 -2.72 2 0 2 C0 1.34 0 0.68 0 0 Z " fill="#2D374B" transform="translate(80,43)"/>
<path d="M0 0 C2.64 0 5.28 0 8 0 C8 2.97 8 5.94 8 9 C8.66 9 9.32 9 10 9 C10 9.66 10 10.32 10 11 C8.35 11 6.7 11 5 11 C5.33 9.35 5.66 7.7 6 6 C3.525 5.505 3.525 5.505 1 5 C2.32 4.34 3.64 3.68 5 3 C3.68 3 2.36 3 1 3 C1 3.99 1 4.98 1 6 C1.99 6.33 2.98 6.66 4 7 C4 7.66 4 8.32 4 9 C0.7 9.33 -2.6 9.66 -6 10 C-5.67 9.34 -5.34 8.68 -5 8 C-3.68 8 -2.36 8 -1 8 C-1.33 7.01 -1.66 6.02 -2 5 C-6.29 5 -10.58 5 -15 5 C-15 4.34 -15 3.68 -15 3 C-10.05 2.67 -5.1 2.34 0 2 C0 1.34 0 0.68 0 0 Z " fill="#E0DA43" transform="translate(64,86)"/>
<path d="M0 0 C0.33 1.32 0.66 2.64 1 4 C3.64 4 6.28 4 9 4 C9 6.31 9 8.62 9 11 C4.38 11.33 -0.24 11.66 -5 12 C-5 11.01 -5 10.02 -5 9 C-3.35 8.67 -1.7 8.34 0 8 C-0.33 7.34 -0.66 6.68 -1 6 C-1.99 5.67 -2.98 5.34 -4 5 C-3.67 3.68 -3.34 2.36 -3 1 C-2.34 1.33 -1.68 1.66 -1 2 C-0.67 1.34 -0.34 0.68 0 0 Z " fill="#8A8C21" transform="translate(70,66)"/>
<path d="M0 0 C0.33 3.96 0.66 7.92 1 12 C0.34 12 -0.32 12 -1 12 C-1.33 10.35 -1.66 8.7 -2 7 C-2.66 8.65 -3.32 10.3 -4 12 C-4.99 11.67 -5.98 11.34 -7 11 C-7.33 9.35 -7.66 7.7 -8 6 C-9.32 6.33 -10.64 6.66 -12 7 C-12 8.98 -12 10.96 -12 13 C-12.33 13 -12.66 13 -13 13 C-13 10.36 -13 7.72 -13 5 C-12.34 5 -11.68 5 -11 5 C-11 4.34 -11 3.68 -11 3 C-11.66 2.67 -12.32 2.34 -13 2 C-11.20873548 1.66451233 -9.41697413 1.33167645 -7.625 1 C-6.62726563 0.814375 -5.62953125 0.62875 -4.6015625 0.4375 C-2 0 -2 0 0 0 Z " fill="#C2C546" transform="translate(94,81)"/>
<path d="M0 0 C0 1.65 0 3.3 0 5 C-2.64 5.33 -5.28 5.66 -8 6 C-8.33 7.32 -8.66 8.64 -9 10 C-6.36 10 -3.72 10 -1 10 C-1 10.99 -1 11.98 -1 13 C-1.99 13 -2.98 13 -4 13 C-4 12.34 -4 11.68 -4 11 C-4.99 11.33 -5.98 11.66 -7 12 C-9.3406065 11.72230092 -11.67624308 11.39460023 -14 11 C-14.125 7.625 -14.125 7.625 -14 4 C-11.72385081 1.72385081 -10.64803179 1.51338589 -7.5625 0.875 C-6.78003906 0.70742188 -5.99757813 0.53984375 -5.19140625 0.3671875 C-3 0 -3 0 0 0 Z " fill="#6FBEE9" transform="translate(27,51)"/>
<path d="M0 0 C2.97 0.33 5.94 0.66 9 1 C9 1.66 9 2.32 9 3 C7.35 2.67 5.7 2.34 4 2 C4 2.66 4 3.32 4 4 C5.65 4.33 7.3 4.66 9 5 C8.67 6.32 8.34 7.64 8 9 C6.88625 8.95875 5.7725 8.9175 4.625 8.875 C0.95633975 8.58878141 0.95633975 8.58878141 -1 11 C-3.625 10.625 -3.625 10.625 -6 10 C-6 8.35 -6 6.7 -6 5 C-4.35 5 -2.7 5 -1 5 C-1 4.34 -1 3.68 -1 3 C-1.66 2.67 -2.32 2.34 -3 2 C-1.68 2.33 -0.36 2.66 1 3 C0.67 2.01 0.34 1.02 0 0 Z " fill="#6C6920" transform="translate(111,80)"/>
<path d="M0 0 C10.56 0 21.12 0 32 0 C32 0.66 32 1.32 32 2 C30.72382812 2.06058594 29.44765625 2.12117188 28.1328125 2.18359375 C26.46352984 2.26799568 24.79425963 2.35264386 23.125 2.4375 C22.28324219 2.47681641 21.44148438 2.51613281 20.57421875 2.55664062 C19.76855469 2.59853516 18.96289062 2.64042969 18.1328125 2.68359375 C17.38918457 2.72025146 16.64555664 2.75690918 15.87939453 2.79467773 C13.91135688 2.89955865 13.91135688 2.89955865 12 4 C9.95944995 4.07065617 7.91665743 4.08421976 5.875 4.0625 C4.77929688 4.05347656 3.68359375 4.04445313 2.5546875 4.03515625 C1.29011719 4.01775391 1.29011719 4.01775391 0 4 C0 2.68 0 1.36 0 0 Z " fill="#E3DD3B" transform="translate(32,34)"/>
<path d="M0 0 C0.33 0 0.66 0 1 0 C0.98839844 0.98742188 0.97679688 1.97484375 0.96484375 2.9921875 C0.95582031 4.27351563 0.94679688 5.55484375 0.9375 6.875 C0.92589844 8.15117188 0.91429688 9.42734375 0.90234375 10.7421875 C0.76823431 13.88664652 0.76823431 13.88664652 2 16 C1.67 16.66 1.34 17.32 1 18 C0.34 18 -0.32 18 -1 18 C-0.98839844 18.71027344 -0.97679688 19.42054687 -0.96484375 20.15234375 C-0.95130859 21.53099609 -0.95130859 21.53099609 -0.9375 22.9375 C-0.92589844 23.85402344 -0.91429688 24.77054688 -0.90234375 25.71484375 C-1 28 -1 28 -2 29 C-3.66617115 29.04063832 -5.33388095 29.042721 -7 29 C-6.360625 28.731875 -5.72125 28.46375 -5.0625 28.1875 C-2.66868314 27.11332248 -2.66868314 27.11332248 -2 24 C-3.65 23.67 -5.3 23.34 -7 23 C-7 22.34 -7 21.68 -7 21 C-5.35 21.33 -3.7 21.66 -2 22 C-2 21.34 -2 20.68 -2 20 C-4.64 20 -7.28 20 -10 20 C-9.67 21.32 -9.34 22.64 -9 24 C-10.32 22.35 -11.64 20.7 -13 19 C-11.54293274 18.49632243 -10.08429904 17.99717444 -8.625 17.5 C-7.81289062 17.2215625 -7.00078125 16.943125 -6.1640625 16.65625 C-4 16 -4 16 -2 16 C-1.34 10.72 -0.68 5.44 0 0 Z " fill="#D4D259" transform="translate(122,61)"/>
<path d="M0 0 C1.18851563 0.10183594 2.37703125 0.20367187 3.6015625 0.30859375 C4.51679687 0.39238281 5.43203125 0.47617187 6.375 0.5625 C6.375 1.8825 6.375 3.2025 6.375 4.5625 C3.075 4.5625 -0.225 4.5625 -3.625 4.5625 C-3.295 6.2125 -2.965 7.8625 -2.625 9.5625 C-3.285 9.5625 -3.945 9.5625 -4.625 9.5625 C-4.625 8.9025 -4.625 8.2425 -4.625 7.5625 C-5.945 7.5625 -7.265 7.5625 -8.625 7.5625 C-8.625 5.2525 -8.625 2.9425 -8.625 0.5625 C-5.68113377 -0.90943312 -3.25109964 -0.28686173 0 0 Z " fill="#CDD240" transform="translate(108.625,52.4375)"/>
<path d="M0 0 C3.63 0.33 7.26 0.66 11 1 C11 2.65 11 4.3 11 6 C8.36 6 5.72 6 3 6 C3 7.32 3 8.64 3 10 C2.01 10 1.02 10 0 10 C-0.33 10.99 -0.66 11.98 -1 13 C-1.02696365 11.20841511 -1.04637917 9.41671527 -1.0625 7.625 C-1.07410156 6.62726562 -1.08570312 5.62953125 -1.09765625 4.6015625 C-1 2 -1 2 0 0 Z " fill="#DEDF4B" transform="translate(67,48)"/>
<path d="M0 0 C0.33 0.66 0.66 1.32 1 2 C1.66 2 2.32 2 3 2 C3.33 4.31 3.66 6.62 4 9 C6.97 9.495 6.97 9.495 10 10 C10 10.66 10 11.32 10 12 C8.20841511 12.02696365 6.41671527 12.04637917 4.625 12.0625 C3.62726562 12.07410156 2.62953125 12.08570312 1.6015625 12.09765625 C-1 12 -1 12 -3 11 C-3.72693904 9.02111039 -4.39816251 7.02045442 -5 5 C-3.35 3.35 -1.7 1.7 0 0 Z " fill="#223867" transform="translate(60,70)"/>
<path d="M0 0 C1.09570312 0.00902344 2.19140625 0.01804688 3.3203125 0.02734375 C4.16335937 0.03894531 5.00640625 0.05054688 5.875 0.0625 C6.205 0.7225 6.535 1.3825 6.875 2.0625 C-2.19518429 3.83023893 -10.83917006 5.50468238 -20.125 5.0625 C-20.125 4.0725 -20.125 3.0825 -20.125 2.0625 C-19.28195313 2.00191406 -18.43890625 1.94132812 -17.5703125 1.87890625 C-16.47460938 1.79511719 -15.37890625 1.71132813 -14.25 1.625 C-13.15945312 1.54378906 -12.06890625 1.46257813 -10.9453125 1.37890625 C-7.02425951 0.93900972 -4.11124252 -0.04373662 0 0 Z " fill="#E4E121" transform="translate(52.125,35.9375)"/>
<path d="M0 0 C0.66 1.32 1.32 2.64 2 4 C2.99 4 3.98 4 5 4 C5 4.66 5 5.32 5 6 C-0.07476794 7.26305335 -4.72796354 8.27036084 -10 8 C-10.042721 6.33388095 -10.04063832 4.66617115 -10 3 C-9 2 -9 2 -6.93359375 1.90234375 C-5.69802734 1.91974609 -5.69802734 1.91974609 -4.4375 1.9375 C-3.61121094 1.94652344 -2.78492187 1.95554687 -1.93359375 1.96484375 C-1.29550781 1.97644531 -0.65742187 1.98804687 0 2 C0 1.34 0 0.68 0 0 Z " fill="#898F31" transform="translate(109,66)"/>
<path d="M0 0 C2.8203125 0.0234375 2.8203125 0.0234375 6.125 0.375 C7.22070312 0.48585937 8.31640625 0.59671875 9.4453125 0.7109375 C10.28835937 0.80632813 11.13140625 0.90171875 12 1 C12 2.65 12 4.3 12 6 C5.565 6.495 5.565 6.495 -1 7 C-1.33 5.35 -1.66 3.7 -2 2 C-1.34 1.34 -0.68 0.68 0 0 Z " fill="#C6C445" transform="translate(85,50)"/>
<path d="M0 0 C1.98 0 3.96 0 6 0 C6.66 0.66 7.32 1.32 8 2 C6.35 2.66 4.7 3.32 3 4 C3 5.98 3 7.96 3 10 C3.763125 9.835 4.52625 9.67 5.3125 9.5 C9.31439223 8.75546191 10.52075742 8.68050495 14 11 C13.01 12.485 13.01 12.485 12 14 C10.3954444 13.85851011 8.79136233 13.71164314 7.1875 13.5625 C6.29417969 13.48128906 5.40085937 13.40007812 4.48046875 13.31640625 C2 13 2 13 -1 12 C-0.67 8.04 -0.34 4.08 0 0 Z " fill="#E7E050" transform="translate(95,81)"/>
<path d="M0 0 C6.6 0 13.2 0 20 0 C20 0.99 20 1.98 20 3 C13.28837062 3.88021369 6.76594019 4.11381955 0 4 C0 2.68 0 1.36 0 0 Z " fill="#383A4F" transform="translate(71,66)"/>
<path d="M0 0 C2.64 0 5.28 0 8 0 C8 2.31 8 4.62 8 7 C5.03 7 2.06 7 -1 7 C-1.33 7.99 -1.66 8.98 -2 10 C-2.66 9.67 -3.32 9.34 -4 9 C-4.33 9.99 -4.66 10.98 -5 12 C-3.02 12.495 -3.02 12.495 -1 13 C-1 13.66 -1 14.32 -1 15 C-2.65 15.33 -4.3 15.66 -6 16 C-6 12.37 -6 8.74 -6 5 C-3 4 -3 4 -1.1875 4.5 C1.73260916 5.16745352 4.09429997 4.59434773 7 4 C7 3.01 7 2.02 7 1 C4.69 1 2.38 1 0 1 C0 0.67 0 0.34 0 0 Z " fill="#98953C" transform="translate(71,59)"/>
<path d="M0 0 C1.98 0 3.96 0 6 0 C6 0.33 6 0.66 6 1 C4.35 1.33 2.7 1.66 1 2 C1.66 2.66 2.32 3.32 3 4 C2.01 4 1.02 4 0 4 C0.33 4.99 0.66 5.98 1 7 C-2.92448803 8.96224402 -7.39986888 8.42538262 -11.52734375 7.328125 C-13.70605632 6.59844559 -15.85873768 5.83271312 -18 5 C-18 4.67 -18 4.34 -18 4 C-12.39 4 -6.78 4 -1 4 C-0.67 2.68 -0.34 1.36 0 0 Z " fill="#E2E125" transform="translate(97,34)"/>
<path d="M0 0 C0.33 0 0.66 0 1 0 C1 4.29 1 8.58 1 13 C2.65 13 4.3 13 6 13 C6 15.97 6 18.94 6 22 C4.02 22 2.04 22 0 22 C0 14.74 0 7.48 0 0 Z " fill="#176AA5" transform="translate(29,53)"/>
<path d="M0 0 C0.33 0 0.66 0 1 0 C1.02505615 0.58491211 1.0501123 1.16982422 1.07592773 1.77246094 C1.19222962 4.43184471 1.31480067 7.09090403 1.4375 9.75 C1.47681641 10.67039062 1.51613281 11.59078125 1.55664062 12.5390625 C1.59853516 13.42851563 1.64042969 14.31796875 1.68359375 15.234375 C1.72025146 16.05131836 1.75690918 16.86826172 1.79467773 17.70996094 C1.99134275 19.9034423 2.40300594 21.88396413 3 24 C1.68 24 0.36 24 -1 24 C-1 23.01 -1 22.02 -1 21 C-1.66 21 -2.32 21 -3 21 C-2.8453125 20.33484375 -2.690625 19.6696875 -2.53125 18.984375 C-1.77532941 14.73787994 -1.6131586 10.47545245 -1.39453125 6.17578125 C-1.10323661 1.10323661 -1.10323661 1.10323661 0 0 Z " fill="#E3E021" transform="translate(3,55)"/>
<path d="M0 0 C1.32 0.33 2.64 0.66 4 1 C4 5.29 4 9.58 4 14 C4.99 14 5.98 14 7 14 C7 14.66 7 15.32 7 16 C6.01 16.33 5.02 16.66 4 17 C3.87625 18.299375 3.7525 19.59875 3.625 20.9375 C3.4140625 23.15234375 3.4140625 23.15234375 3 25 C2.34 25.33 1.68 25.66 1 26 C1.01160156 25.04480469 1.02320312 24.08960937 1.03515625 23.10546875 C1.08939161 15.33431699 0.90018566 7.73195186 0 0 Z " fill="#E3DC4C" transform="translate(121,50)"/>
<path d="M0 0 C0.33 0.99 0.66 1.98 1 3 C3.64 3 6.28 3 9 3 C9 4.65 9 6.3 9 8 C4.71 8.66 0.42 9.32 -4 10 C-4.33 8.35 -4.66 6.7 -5 5 C-1.7 5 1.6 5 5 5 C5 5.66 5 6.32 5 7 C5.99 7 6.98 7 8 7 C8 6.01 8 5.02 8 4 C5.36 4 2.72 4 0 4 C0 2.68 0 1.36 0 0 Z " fill="#3381BE" transform="translate(18,57)"/>
<path d="M0 0 C5.75 0.75 5.75 0.75 8 3 C8.25878906 5.12304687 8.25878906 5.12304687 8.265625 7.71875 C8.26820312 8.65074219 8.27078125 9.58273438 8.2734375 10.54296875 C8.26570313 11.51878906 8.25796875 12.49460937 8.25 13.5 C8.25773437 14.47582031 8.26546875 15.45164062 8.2734375 16.45703125 C8.27085938 17.38902344 8.26828125 18.32101563 8.265625 19.28125 C8.26336914 20.13783203 8.26111328 20.99441406 8.25878906 21.87695312 C8 24 8 24 6 26 C5.67 18.41 5.34 10.82 5 3 C4.34 3 3.68 3 3 3 C3 2.34 3 1.68 3 1 C2.01 0.67 1.02 0.34 0 0 Z " fill="#343A21" transform="translate(114,48)"/>
<path d="M0 0 C0.33 0 0.66 0 1 0 C1 3.96 1 7.92 1 12 C0.34 10.68 -0.32 9.36 -1 8 C-3.97 8 -6.94 8 -10 8 C-10 6.68 -10 5.36 -10 4 C-6.7 4 -3.4 4 0 4 C0 2.68 0 1.36 0 0 Z " fill="#484439" transform="translate(97,52)"/>
<path d="M0 0 C0.99 0.33 1.98 0.66 3 1 C3 2.65 3 4.3 3 6 C1.39796533 6.36368892 -0.20674203 6.71561952 -1.8125 7.0625 C-2.70582031 7.25972656 -3.59914063 7.45695312 -4.51953125 7.66015625 C-7 8 -7 8 -10 7 C-10 6.01 -10 5.02 -10 4 C-7.03 4 -4.06 4 -1 4 C-0.67 2.68 -0.34 1.36 0 0 Z " fill="#8A8E29" transform="translate(93,68)"/>
<path d="M0 0 C2.97 0 5.94 0 9 0 C10.09506492 3.28519475 10.09960608 5.73663415 10.0625 9.1875 C10.05347656 10.27417969 10.04445313 11.36085938 10.03515625 12.48046875 C10.02355469 13.31191406 10.01195313 14.14335938 10 15 C9.34 15 8.68 15 8 15 C7.67 11.04 7.34 7.08 7 3 C4.69 3 2.38 3 0 3 C0 2.01 0 1.02 0 0 Z " fill="#4E5846" transform="translate(106,57)"/>
<path d="M0 0 C0.33 0.66 0.66 1.32 1 2 C1.66 2 2.32 2 3 2 C3.33 1.34 3.66 0.68 4 0 C6.64 0.33 9.28 0.66 12 1 C12 1.99 12 2.98 12 4 C7.545 4.495 7.545 4.495 3 5 C2.67 6.65 2.34 8.3 2 10 C1.01 10 0.02 10 -1 10 C-0.67 6.7 -0.34 3.4 0 0 Z " fill="#434328" transform="translate(97,64)"/>
<path d="M0 0 C4.95 0 9.9 0 15 0 C13.02 0.99 13.02 0.99 11 2 C11 2.66 11 3.32 11 4 C5.16200408 5.69832609 0.06892629 6.25287193 -6 6 C-3.21374112 4.45346979 -0.98129011 3.71692427 2.1875 3.4375 C5.78190939 3.42538466 5.78190939 3.42538466 7 2 C4.69 1.67 2.38 1.34 0 1 C0 0.67 0 0.34 0 0 Z " fill="#1E2E49" transform="translate(83,77)"/>
<path d="M0 0 C-0.66 1.65 -1.32 3.3 -2 5 C-6.29 4.67 -10.58 4.34 -15 4 C-15 4.66 -15 5.32 -15 6 C-15.99 5.67 -16.98 5.34 -18 5 C-18.33 4.34 -18.66 3.68 -19 3 C-16.77228658 2.49356447 -14.54275924 1.9951038 -12.3125 1.5 C-10.45044922 1.08234375 -10.45044922 1.08234375 -8.55078125 0.65625 C-5.57601782 0.10645874 -3.00631398 -0.13795705 0 0 Z " fill="#23345E" transform="translate(29,46)"/>
<path d="M0 0 C1.85772162 0.08984301 3.71247985 0.24611861 5.5625 0.4375 C7.08037109 0.59025391 7.08037109 0.59025391 8.62890625 0.74609375 C9.80259766 0.87177734 9.80259766 0.87177734 11 1 C9.08684881 3.57619276 8.0983686 3.98395232 4.86328125 4.51171875 C3.69152344 4.56972656 2.51976563 4.62773438 1.3125 4.6875 C0.13300781 4.75324219 -1.04648438 4.81898437 -2.26171875 4.88671875 C-3.61716797 4.94279297 -3.61716797 4.94279297 -5 5 C-5.33 3.68 -5.66 2.36 -6 1 C-4.7934375 1.0309375 -4.7934375 1.0309375 -3.5625 1.0625 C-1.06645115 1.29633621 -1.06645115 1.29633621 0 0 Z " fill="#293B68" transform="translate(81,77)"/>
<path d="M0 0 C0.99 0 1.98 0 3 0 C3 4.29 3 8.58 3 13 C1.68 12.34 0.36 11.68 -1 11 C-1.02688151 9.35425434 -1.04634123 7.70838587 -1.0625 6.0625 C-1.07410156 5.14597656 -1.08570312 4.22945313 -1.09765625 3.28515625 C-1 1 -1 1 0 0 Z " fill="#E1DF2C" transform="translate(125,66)"/>
<path d="M0 0 C1.28132813 0.00902344 2.56265625 0.01804688 3.8828125 0.02734375 C4.87023437 0.03894531 5.85765625 0.05054688 6.875 0.0625 C6.875 0.3925 6.875 0.7225 6.875 1.0625 C-15.92627986 4.64415209 -15.92627986 4.64415209 -25.125 4.0625 C-25.125 3.7325 -25.125 3.4025 -25.125 3.0625 C-23.99320313 2.92972656 -22.86140625 2.79695313 -21.6953125 2.66015625 C-20.21351821 2.4819658 -18.73174864 2.30356971 -17.25 2.125 C-16.13044922 1.99448242 -16.13044922 1.99448242 -14.98828125 1.86132812 C-9.67466302 1.21507726 -5.4197366 -0.04927033 0 0 Z " fill="#D7D665" transform="translate(49.125,39.9375)"/>
<path d="M0 0 C7.99976044 -0.20483028 15.26134446 -0.13480153 23 2 C21 4 21 4 19.00390625 4.046875 C18.19824219 3.94890625 17.39257812 3.8509375 16.5625 3.75 C15.67949219 3.64300781 14.79648437 3.53601563 13.88671875 3.42578125 C9.23416256 2.73954495 4.61484048 1.90366648 0 1 C0 0.67 0 0.34 0 0 Z " fill="#36382C" transform="translate(24,79)"/>
<path d="M0 0 C0.99 0 1.98 0 3 0 C3 1.98 3 3.96 3 6 C4.32 6.33 5.64 6.66 7 7 C1.12116651 9.61281488 -4.70731728 9.18328202 -11 9 C-7.20960634 6.87000003 -4.34263862 6.83297544 0 7 C0 4.69 0 2.38 0 0 Z " fill="#4A5034" transform="translate(79,70)"/>
<path d="M0 0 C2.64 0 5.28 0 8 0 C8 2.31 8 4.62 8 7 C3.71 7 -0.58 7 -5 7 C-5 6.01 -5 5.02 -5 4 C2.42857143 3.85714286 2.42857143 3.85714286 6 5 C6.33 3.68 6.66 2.36 7 1 C4.69 1 2.38 1 0 1 C0 0.67 0 0.34 0 0 Z " fill="#377FB2" transform="translate(52,59)"/>
<path d="M0 0 C10.15317287 -0.63019694 10.15317287 -0.63019694 13.6875 2 C14.120625 2.66 14.55375 3.32 15 4 C14.67 4.66 14.34 5.32 14 6 C12.22604492 5.57533503 10.45589369 5.1347591 8.6875 4.6875 C7.70136719 4.44386719 6.71523437 4.20023438 5.69921875 3.94921875 C2.99858988 2.99950411 1.79043784 2.18152323 0 0 Z " fill="#E5DF50" transform="translate(106,44)"/>
<path d="M0 0 C2.64 0 5.28 0 8 0 C8 2.31 8 4.62 8 7 C5.69 7 3.38 7 1 7 C1.66 6.34 2.32 5.68 3 5 C3.99 5 4.98 5 6 5 C5.195625 4.731875 4.39125 4.46375 3.5625 4.1875 C2.716875 3.795625 1.87125 3.40375 1 3 C0.67 2.01 0.34 1.02 0 0 Z " fill="#8A8A3F" transform="translate(71,70)"/>
<path d="M0 0 C0 0.99 0 1.98 0 3 C-2 2.33333333 -4 1.66666667 -6 1 C-6 1.66 -6 2.32 -6 3 C-5.34 3.33 -4.68 3.66 -4 4 C-4.33 4.33 -4.66 4.66 -5 5 C-4.01 5.33 -3.02 5.66 -2 6 C-2 5.34 -2 4.68 -2 4 C-1.34 4 -0.68 4 0 4 C-0.33 4.99 -0.66 5.98 -1 7 C-2.875 7.875 -2.875 7.875 -5 8 C-6.8125 6.875 -6.8125 6.875 -8 5 C-7.8125 2.375 -7.8125 2.375 -7 0 C-4.3333581 -1.33332095 -2.83319697 -0.67102033 0 0 Z " fill="#474504" transform="translate(79,88)"/>
<path d="M0 0 C1.2077558 3.62326739 0.54311128 4.64146369 -1 8 C-1.99 7.67 -2.98 7.34 -4 7 C-4.33 5.35 -4.66 3.7 -5 2 C-6.32 2.33 -7.64 2.66 -9 3 C-9 4.98 -9 6.96 -9 9 C-9.33 9 -9.66 9 -10 9 C-10 6.36 -10 3.72 -10 1 C-7.125 0.875 -7.125 0.875 -4 1 C-3.34 1.66 -2.68 2.32 -2 3 C-1.34 2.01 -0.68 1.02 0 0 Z " fill="#373903" transform="translate(91,85)"/>
<path d="M0 0 C2.64 0 5.28 0 8 0 C8.33 0.66 8.66 1.32 9 2 C6.69 2.33 4.38 2.66 2 3 C2 5.31 2 7.62 2 10 C1.34 10 0.68 10 0 10 C0 6.7 0 3.4 0 0 Z " fill="#113E77" transform="translate(52,66)"/>
<path d="M0 0 C0.86625 0.2784375 0.86625 0.2784375 1.75 0.5625 C4.22600969 1.04394633 5.60194629 0.63948099 8 0 C8.66 0.33 9.32 0.66 10 1 C10 1.99 10 2.98 10 4 C5.47907032 5.45606519 2.48351204 4.27032841 -2 3 C-1.34 2.01 -0.68 1.02 0 0 Z " fill="#DCD82B" transform="translate(109,91)"/>
<path d="M0 0 C0.66 0.66 1.32 1.32 2 2 C4.10820797 1.6814823 4.10820797 1.6814823 6 1 C6.66 3.31 7.32 5.62 8 8 C7.01 8 6.02 8 5 8 C4.67 7.01 4.34 6.02 4 5 C4 6.32 4 7.64 4 9 C2.68 9 1.36 9 0 9 C0 6.03 0 3.06 0 0 Z " fill="#C0C645" transform="translate(80,86)"/>
<path d="M0 0 C3.96 0 7.92 0 12 0 C12 0.99 12 1.98 12 3 C5.565 3.495 5.565 3.495 -1 4 C-0.67 2.68 -0.34 1.36 0 0 Z " fill="#3393CC" transform="translate(31,62)"/>
<path d="M0 0 C0.33 1.32 0.66 2.64 1 4 C3.64 4 6.28 4 9 4 C9 4.66 9 5.32 9 6 C8.22914062 6.06058594 7.45828125 6.12117188 6.6640625 6.18359375 C5.66117188 6.26738281 4.65828125 6.35117187 3.625 6.4375 C2.12839844 6.55931641 2.12839844 6.55931641 0.6015625 6.68359375 C-1.97927613 6.84965626 -1.97927613 6.84965626 -4 8 C-3.67 6.68 -3.34 5.36 -3 4 C-2.01 4 -1.02 4 0 4 C0 2.68 0 1.36 0 0 Z " fill="#53A4DC" transform="translate(34,56)"/>
<path d="M0 0 C4.78179825 1.07346491 4.78179825 1.07346491 7.0625 1.6875 C7.0625 2.3475 7.0625 3.0075 7.0625 3.6875 C5.27116022 3.74141993 3.47936101 3.78025571 1.6875 3.8125 C0.68976562 3.83570312 -0.30796875 3.85890625 -1.3359375 3.8828125 C-3.9375 3.6875 -3.9375 3.6875 -5.9375 1.6875 C-2.9375 -0.3125 -2.9375 -0.3125 0 0 Z " fill="#28347B" transform="translate(62.9375,78.3125)"/>
<path d="M0 0 C0 2.31 0 4.62 0 7 C-0.99 6.67 -1.98 6.34 -3 6 C-2.34 6 -1.68 6 -1 6 C-1.33 5.01 -1.66 4.02 -2 3 C-2 3.66 -2 4.32 -2 5 C-2.99 5 -3.98 5 -5 5 C-5 4.34 -5 3.68 -5 3 C-7.31 3 -9.62 3 -12 3 C-11 1 -11 1 -9.375 0.375 C-6.2339425 -0.12095645 -3.17398169 -0.06103811 0 0 Z " fill="#57A4D8" transform="translate(60,47)"/>
<path d="M0 0 C6.0546875 -0.1953125 6.0546875 -0.1953125 8 0 C8.66 0.66 9.32 1.32 10 2 C8 4 8 4 6.0546875 4.1953125 C4.03645833 4.13020833 2.01822917 4.06510417 0 4 C0 2.68 0 1.36 0 0 Z " fill="#E7DA4A" transform="translate(32,34)"/>
<path d="M0 0 C0.33 0 0.66 0 1 0 C1 1.65 1 3.3 1 5 C1.99 5 2.98 5 4 5 C3.67 4.01 3.34 3.02 3 2 C3.66 2 4.32 2 5 2 C5 3.32 5 4.64 5 6 C7.64 6 10.28 6 13 6 C13 6.99 13 7.98 13 9 C12.01 9 11.02 9 10 9 C10 8.34 10 7.68 10 7 C9.01 7.33 8.02 7.66 7 8 C4.6593935 7.72230092 2.32375692 7.39460023 0 7 C0 4.69 0 2.38 0 0 Z " fill="#59A7D8" transform="translate(13,55)"/>
<path d="M0 0 C3.37462715 0.54723683 5.08235 1.0549 8 3 C7.67 4.32 7.34 5.64 7 7 C4.69 6.67 2.38 6.34 0 6 C0.185625 5.38125 0.37125 4.7625 0.5625 4.125 C1.23686176 1.95839822 1.23686176 1.95839822 0 0 Z " fill="#E9E63D" transform="translate(64,97)"/>
<path d="M0 0 C2.875 -0.125 2.875 -0.125 6 0 C6.66 0.66 7.32 1.32 8 2 C7.21625 2.185625 6.4325 2.37125 5.625 2.5625 C2.60623658 3.83961627 2.60623658 3.83961627 1.6875 7.625 C1.460625 8.73875 1.23375 9.8525 1 11 C0.67 11 0.34 11 0 11 C0 7.37 0 3.74 0 0 Z " fill="#D4D15D" transform="translate(95,81)"/>
<path d="M0 0 C0.33 0 0.66 0 1 0 C1 2.64 1 5.28 1 8 C-1.31 8 -3.62 8 -6 8 C-6.33 10.31 -6.66 12.62 -7 15 C-7.33 15 -7.66 15 -8 15 C-8 11.7 -8 8.4 -8 5 C-5.36 5 -2.72 5 0 5 C0 3.35 0 1.7 0 0 Z " fill="#135291" transform="translate(43,60)"/>
<path d="M0 0 C1.69141656 0.08963062 3.37959602 0.24577676 5.0625 0.4375 C6.44115234 0.59025391 6.44115234 0.59025391 7.84765625 0.74609375 C8.55792969 0.82988281 9.26820312 0.91367187 10 1 C10 1.99 10 2.98 10 4 C7.36 4 4.72 4 2 4 C2 3.34 2 2.68 2 2 C0.68 2.99 -0.64 3.98 -2 5 C-1.125 1.125 -1.125 1.125 0 0 Z " fill="#DDE23D" transform="translate(85,50)"/>
<path d="M0 0 C5.28 0 10.56 0 16 0 C16 0.66 16 1.32 16 2 C10.39436958 2.82622671 5.57710648 3.06795656 0 2 C0 1.34 0 0.68 0 0 Z " fill="#273574" transform="translate(64,43)"/>
<path d="M0 0 C1.32 0 2.64 0 4 0 C4 0.66 4 1.32 4 2 C2.68 2 1.36 2 0 2 C0 3.65 0 5.3 0 7 C1.65 6.34 3.3 5.68 5 5 C4.34 6.32 3.68 7.64 3 9 C1.35 8.67 -0.3 8.34 -2 8 C-2.125 5.125 -2.125 5.125 -2 2 C-1.34 1.34 -0.68 0.68 0 0 Z " fill="#4E4E03" transform="translate(99,83)"/>
<path d="M0 0 C2.97 0 5.94 0 9 0 C9 0.99 9 1.98 9 3 C5.7 3.33 2.4 3.66 -1 4 C-0.67 2.68 -0.34 1.36 0 0 Z " fill="#DEE321" transform="translate(68,50)"/>
<path d="M0 0 C2.05078125 0.03255208 4.1015625 0.06510417 6.15234375 0.09765625 C5.51296875 0.36578125 4.87359375 0.63390625 4.21484375 0.91015625 C1.82102689 1.98433377 1.82102689 1.98433377 1.15234375 5.09765625 C1.81234375 5.42765625 2.47234375 5.75765625 3.15234375 6.09765625 C1.17234375 6.09765625 -0.80765625 6.09765625 -2.84765625 6.09765625 C-2.89037725 4.4315372 -2.88829457 2.7638274 -2.84765625 1.09765625 C-1.84765625 0.09765625 -1.84765625 0.09765625 0 0 Z " fill="#7D8141" transform="translate(101.84765625,67.90234375)"/>
<path d="M0 0 C1.32 0.33 2.64 0.66 4 1 C4 3.31 4 5.62 4 8 C3.01 8 2.02 8 1 8 C0.67 8.66 0.34 9.32 0 10 C0 6.7 0 3.4 0 0 Z " fill="#6CC6ED" transform="translate(47,52)"/>
<path d="M0 0 C0.66 0.33 1.32 0.66 2 1 C2 4.63 2 8.26 2 12 C1.01 12 0.02 12 -1 12 C-1.14285714 3.42857143 -1.14285714 3.42857143 0 0 Z " fill="#E4DE25" transform="translate(126,52)"/>
<path d="M0 0 C0.99386719 0.00902344 1.98773438 0.01804688 3.01171875 0.02734375 C4.15060547 0.04474609 4.15060547 0.04474609 5.3125 0.0625 C5.3125 0.3925 5.3125 0.7225 5.3125 1.0625 C3.3325 1.0625 1.3525 1.0625 -0.6875 1.0625 C-1.0175 2.0525 -1.3475 3.0425 -1.6875 4.0625 C-3.3375 4.0625 -4.9875 4.0625 -6.6875 4.0625 C-6.6875 3.4025 -6.6875 2.7425 -6.6875 2.0625 C-7.3475 1.7325 -8.0075 1.4025 -8.6875 1.0625 C-5.53819107 0.01273036 -3.29935544 -0.03881595 0 0 Z " fill="#283472" transform="translate(34.6875,45.9375)"/>
<path d="M0 0 C1.32 0 2.64 0 4 0 C4 2.31 4 4.62 4 7 C2.0625 6.625 2.0625 6.625 0 6 C-1.24546405 3.50907189 -0.7767578 2.58919267 0 0 Z " fill="#1D599F" transform="translate(23,68)"/>
<path d="M0 0 C0 0.33 0 0.66 0 1 C-8.91 2.485 -8.91 2.485 -18 4 C-17 2 -17 2 -14.625 0.875 C-9.71740492 -0.30959192 -5.02296193 -0.16087778 0 0 Z " fill="#C6C259" transform="translate(29,44)"/>
<path d="M0 0 C0.79921875 0.19464844 1.5984375 0.38929687 2.421875 0.58984375 C3.32679687 0.82380859 3.32679687 0.82380859 4.25 1.0625 C4.25 1.7225 4.25 2.3825 4.25 3.0625 C2.64667209 3.14371924 1.04215974 3.20179134 -0.5625 3.25 C-1.45582031 3.28480469 -2.34914063 3.31960937 -3.26953125 3.35546875 C-6.16647515 3.01331002 -6.97555028 2.30856427 -8.75 0.0625 C-5.47814447 -1.01060858 -3.32052408 -0.83013102 0 0 Z " fill="#E4D827" transform="translate(107.75,40.9375)"/>
<path d="M0 0 C2.375 -0.125 2.375 -0.125 5 0 C5.66 0.66 6.32 1.32 7 2 C8.32 2.66 9.64 3.32 11 4 C6.05 3.67 1.1 3.34 -4 3 C-2.68 2.67 -1.36 2.34 0 2 C0 1.34 0 0.68 0 0 Z " fill="#2E3F58" transform="translate(70,80)"/>
<path d="M0 0 C0.98484375 0.00902344 1.9696875 0.01804688 2.984375 0.02734375 C4.10585938 0.04474609 4.10585938 0.04474609 5.25 0.0625 C1.58169091 2.50803939 -1.38377915 3.01857424 -5.75 3.0625 C-8.25 2.125 -8.25 2.125 -9.75 1.0625 C-6.43929162 0.06140485 -3.44915231 -0.04106134 0 0 Z " fill="#163C60" transform="translate(57.75,43.9375)"/>
<path d="M0 0 C1.32 0 2.64 0 4 0 C4 0.66 4 1.32 4 2 C6.64 2 9.28 2 12 2 C11.67 2.66 11.34 3.32 11 4 C7.37 3.67 3.74 3.34 0 3 C0 2.01 0 1.02 0 0 Z " fill="#ACAD32" transform="translate(100,60)"/>
<path d="M0 0 C0 1.65 0 3.3 0 5 C-2.31 5 -4.62 5 -7 5 C-7 4.34 -7 3.68 -7 3 C-8.32 2.67 -9.64 2.34 -11 2 C-6.25 0.875 -6.25 0.875 -4 2 C-4 2.66 -4 3.32 -4 4 C-3.01 4 -2.02 4 -1 4 C-1 3.34 -1 2.68 -1 2 C-1.66 1.67 -2.32 1.34 -3 1 C-1 0 -1 0 0 0 Z " fill="#74C6F5" transform="translate(59,48)"/>
<path d="M0 0 C2.97 0 5.94 0 9 0 C6.64046906 2.35953094 5.22104383 2.49141413 2 3 C1.67 3.99 1.34 4.98 1 6 C1.99 6.33 2.98 6.66 4 7 C2.68 7 1.36 7 0 7 C0 4.69 0 2.38 0 0 Z " fill="#7B845A" transform="translate(82,69)"/>
<path d="M0 0 C2.64 0 5.28 0 8 0 C8 0.99 8 1.98 8 3 C5.36 3 2.72 3 0 3 C0 2.01 0 1.02 0 0 Z " fill="#E9D949" transform="translate(88,35)"/>
<path d="M0 0 C2 3.75 2 3.75 2 6 C2.66 6 3.32 6 4 6 C4 6.66 4 7.32 4 8 C2.35 8 0.7 8 -1 8 C-0.67 6.35 -0.34 4.7 0 3 C-1.65 2.67 -3.3 2.34 -5 2 C-4.360625 1.855625 -3.72125 1.71125 -3.0625 1.5625 C-1.02454854 1.18992819 -1.02454854 1.18992819 0 0 Z " fill="#D7D75B" transform="translate(70,89)"/>
<path d="M0 0 C3.96 0 7.92 0 12 0 C7.78622182 3.16033363 6.9510716 3.43052797 2 3 C1.34 2.67 0.68 2.34 0 2 C0 1.34 0 0.68 0 0 Z " fill="#E3D728" transform="translate(32,84)"/>
<path d="M0 0 C2.31 0.33 4.62 0.66 7 1 C3.99382731 4.00617269 1.17618402 3.59585316 -3 4 C-2.34 3.67 -1.68 3.34 -1 3 C-0.67 2.01 -0.34 1.02 0 0 Z " fill="#E4DE47" transform="translate(11,43)"/>
<path d="M0 0 C7.75 -0.125 7.75 -0.125 10 1 C9.67 1.99 9.34 2.98 9 4 C6.36 3.67 3.72 3.34 1 3 C0.67 2.01 0.34 1.02 0 0 Z " fill="#3F9FD6" transform="translate(49,61)"/>
<path d="M0 0 C1.98 0.99 1.98 0.99 4 2 C3.67 4.31 3.34 6.62 3 9 C2.34 9 1.68 9 1 9 C0.67 6.03 0.34 3.06 0 0 Z " fill="#243879" transform="translate(116,59)"/>
<path d="M0 0 C2.31 0.66 4.62 1.32 7 2 C4.66785852 3.20628008 2.50357861 4.1654738 0 5 C-0.66 4.67 -1.32 4.34 -2 4 C-1.34 2.68 -0.68 1.36 0 0 Z " fill="#E9E651" transform="translate(112,88)"/>
<path d="M0 0 C0 0.33 0 0.66 0 1 C-5.05002222 2.03590199 -9.87416389 2.10251672 -15 2 C-9.35624932 -0.91918138 -6.18184294 -0.91207519 0 0 Z " fill="#2B3523" transform="translate(92,81)"/>
<path d="M0 0 C-0.33 0.99 -0.66 1.98 -1 3 C-2.98 3 -4.96 3 -7 3 C-7 2.01 -7 1.02 -7 0 C-2.25 -1.125 -2.25 -1.125 0 0 Z " fill="#293772" transform="translate(119,72)"/>
<path d="M0 0 C4.60209225 -0.17700355 6.78370866 -0.10814567 11 2 C7.37 2.33 3.74 2.66 0 3 C0 2.01 0 1.02 0 0 Z " fill="#308EC4" transform="translate(47,63)"/>
<path d="M0 0 C0 0.33 0 0.66 0 1 C-1.03125 1.103125 -2.0625 1.20625 -3.125 1.3125 C-6.95083945 1.99127797 -9.63370025 3.11158795 -13 5 C-13.33 4.01 -13.66 3.02 -14 2 C-9.07262981 0.02905192 -5.21979128 -0.1799928 0 0 Z " fill="#17487F" transform="translate(42,48)"/>
<path d="M0 0 C2.64 0.33 5.28 0.66 8 1 C8 1.66 8 2.32 8 3 C5.36 3 2.72 3 0 3 C0 2.01 0 1.02 0 0 Z " fill="#E9DC25" transform="translate(16,41)"/>
<path d="M0 0 C2.475 0.495 2.475 0.495 5 1 C4.34 2.32 3.68 3.64 3 5 C2.01 5 1.02 5 0 5 C0 3.35 0 1.7 0 0 Z " fill="#DDDF66" transform="translate(99,85)"/>
<path d="M0 0 C-0.99 0.495 -0.99 0.495 -2 1 C-1.34 1.66 -0.68 2.32 0 3 C-2.31 3 -4.62 3 -7 3 C-7 2.01 -7 1.02 -7 0 C-3.86650268 -1.04449911 -3.01031744 -0.93423645 0 0 Z " fill="#808627" transform="translate(72,75)"/>
<path d="M0 0 C0.33 1.32 0.66 2.64 1 4 C-2.3 4 -5.6 4 -9 4 C-6.01353231 2.00902154 -3.40312738 1.05875074 0 0 Z " fill="#AEB565" transform="translate(114,53)"/>
<path d="M0 0 C1.32 1.32 2.64 2.64 4 4 C3.34 4 2.68 4 2 4 C2 4.66 2 5.32 2 6 C0.68 5.67 -0.64 5.34 -2 5 C-2 3.68 -2 2.36 -2 1 C-1.34 0.67 -0.68 0.34 0 0 Z " fill="#B9BB55" transform="translate(75,88)"/>
<path d="M0 0 C3.63 0 7.26 0 11 0 C11 0.99 11 1.98 11 3 C7.31733897 2.40049704 3.65456815 1.75241109 0 1 C0 0.67 0 0.34 0 0 Z " fill="#223345" transform="translate(13,76)"/>
<path d="M0 0 C0.99 0.33 1.98 0.66 3 1 C3 2.32 3 3.64 3 5 C1.02 5 -0.96 5 -3 5 C-2.34 4.67 -1.68 4.34 -1 4 C-0.34786708 1.97536745 -0.34786708 1.97536745 0 0 Z " fill="#87940B" transform="translate(93,68)"/>
<path d="M0 0 C2.31 0 4.62 0 7 0 C7 0.99 7 1.98 7 3 C5.02 3 3.04 3 1 3 C0.67 2.01 0.34 1.02 0 0 Z " fill="#3B3B2A" transform="translate(84,66)"/>
<path d="M0 0 C1.65 0 3.3 0 5 0 C4.01 0.495 4.01 0.495 3 1 C3 1.66 3 2.32 3 3 C4.65 3 6.3 3 8 3 C8 3.33 8 3.66 8 4 C5.36 4 2.72 4 0 4 C0 2.68 0 1.36 0 0 Z " fill="#164E85" transform="translate(19,56)"/>
<path d="M0 0 C2.64 0.33 5.28 0.66 8 1 C7.67 1.99 7.34 2.98 7 4 C4.69 3.67 2.38 3.34 0 3 C0 2.01 0 1.02 0 0 Z " fill="#3A3919" transform="translate(106,57)"/>
<path d="M0 0 C-0.33 0.66 -0.66 1.32 -1 2 C-4.63 1.01 -8.26 0.02 -12 -1 C-12 -1.33 -12 -1.66 -12 -2 C-6.93395388 -3.3268216 -4.47171108 -2.66173278 0 0 Z " fill="#C0C054" transform="translate(121,48)"/>
<path d="M0 0 C0 0.66 0 1.32 0 2 C-3.3 2.66 -6.6 3.32 -10 4 C-9 2 -9 2 -6.125 0.875 C-3 0 -3 0 0 0 Z " fill="#3B451E" transform="translate(120,75)"/>
<path d="M0 0 C0.99 0 1.98 0 3 0 C3 2.31 3 4.62 3 7 C2.01 6.34 1.02 5.68 0 5 C-0.1875 2.375 -0.1875 2.375 0 0 Z " fill="#E2E317" transform="translate(125,68)"/>
<path d="M0 0 C2.64 0 5.28 0 8 0 C7.01 0.33 6.02 0.66 5 1 C5 1.66 5 2.32 5 3 C3.35 3 1.7 3 0 3 C0 2.01 0 1.02 0 0 Z " fill="#0B5083" transform="translate(19,65)"/>
<path d="M0 0 C1.5 1.25 1.5 1.25 3 3 C3 4.32 3 5.64 3 7 C1.68 7.33 0.36 7.66 -1 8 C-0.67 5.36 -0.34 2.72 0 0 Z " fill="#75C0F1" transform="translate(31,53)"/>
<path d="M0 0 C0 1.65 0 3.3 0 5 C-0.66 5 -1.32 5 -2 5 C-2.33 4.34 -2.66 3.68 -3 3 C-5.52733235 2.34444881 -5.52733235 2.34444881 -8 2 C-8 1.67 -8 1.34 -8 1 C-5.23735711 0.40267181 -2.83967231 0 0 0 Z " fill="#5593C3" transform="translate(27,51)"/>
<path d="M0 0 C2.31 0 4.62 0 7 0 C7 0.99 7 1.98 7 3 C6.67 3 6.34 3 6 3 C5.67 4.65 5.34 6.3 5 8 C4.67 8 4.34 8 4 8 C4 5.69 4 3.38 4 1 C2.68 0.67 1.36 0.34 0 0 Z " fill="#1D467F" transform="translate(56,46)"/>
<path d="M0 0 C0.66 0.33 1.32 0.66 2 1 C2 1.99 2 2.98 2 4 C0.68 4.33 -0.64 4.66 -2 5 C-2 3.68 -2 2.36 -2 1 C-1.34 0.67 -0.68 0.34 0 0 Z " fill="#E0DF23" transform="translate(117,91)"/>
<path d="M0 0 C-0.639375 0.309375 -1.27875 0.61875 -1.9375 0.9375 C-3.93610821 1.8345163 -3.93610821 1.8345163 -5 3 C-6.99958364 3.04080783 -9.00045254 3.04254356 -11 3 C-8.21756596 -1.17365106 -4.53441502 -0.22300402 0 0 Z " fill="#252C35" transform="translate(115,76)"/>
<path d="M0 0 C0.99 0 1.98 0 3 0 C3 1.98 3 3.96 3 6 C2.01 5.67 1.02 5.34 0 5 C0 3.35 0 1.7 0 0 Z " fill="#056AAA" transform="translate(30,67)"/>
<path d="M0 0 C1.65 0 3.3 0 5 0 C5.33 1.65 5.66 3.3 6 5 C5.34 5 4.68 5 4 5 C4 4.34 4 3.68 4 3 C2.68 3 1.36 3 0 3 C0 2.01 0 1.02 0 0 Z " fill="#B4C143" transform="translate(100,57)"/>
<path d="M0 0 C0.99 0 1.98 0 3 0 C3 1.32 3 2.64 3 4 C2.01 4 1.02 4 0 4 C-0.33 4.99 -0.66 5.98 -1 7 C-0.67 4.69 -0.34 2.38 0 0 Z " fill="#C9CC3B" transform="translate(67,54)"/>
<path d="M0 0 C2.31 0 4.62 0 7 0 C7 0.99 7 1.98 7 3 C4.0625 2.625 4.0625 2.625 1 2 C0.67 1.34 0.34 0.68 0 0 Z " fill="#E7E517" transform="translate(89,39)"/>
</svg>
